<svg width="17" height="20" viewBox="0 0 17 20" fill="none" xmlns="http://www.w3.org/2000/svg">
<path d="M6.14845 6.875H3.5C1.63604 6.875 0.125 8.55393 0.125 10.625C0.125 12.6961 1.63604 14.375 3.5 14.375H6.875C8.73896 14.375 10.25 12.6961 10.25 10.625C10.25 10.1867 10.1823 9.76597 10.058 9.375H9.125C9.02798 9.375 8.93384 9.38864 8.84402 9.4143C9.02305 9.773 9.125 10.1858 9.125 10.625C9.125 12.0057 8.11764 13.125 6.875 13.125H3.5C2.25736 13.125 1.25 12.0057 1.25 10.625C1.25 9.24429 2.25736 8.125 3.5 8.125H5.22702C5.47197 7.65449 5.78395 7.23245 6.14845 6.875Z" fill="#9F744F"/>
<path d="M9.125 6.875C7.26104 6.875 5.75 8.55393 5.75 10.625C5.75 11.0633 5.81767 11.484 5.94204 11.875H7.17601C6.98457 11.5073 6.875 11.0804 6.875 10.625C6.875 9.24429 7.88236 8.125 9.125 8.125H12.5C13.7426 8.125 14.75 9.24429 14.75 10.625C14.75 12.0057 13.7426 13.125 12.5 13.125H10.773C10.528 13.5955 10.216 14.0175 9.85155 14.375H12.5C14.364 14.375 15.875 12.6961 15.875 10.625C15.875 8.55393 14.364 6.875 12.5 6.875H9.125Z" fill="#9F744F"/>
</svg>
